<svg xmlns="http://www.w3.org/2000/svg" xmlns:xlink="http://www.w3.org/1999/xlink" viewBox="0 0 380.63 232.4"><defs><style>.cls-1{fill:none;}.cls-2{isolation:isolate;}.cls-3{fill:url(#Gradiente_sem_nome_11);}.cls-10,.cls-11,.cls-4,.cls-5,.cls-7,.cls-8{opacity:0.5;}.cls-10,.cls-11,.cls-4,.cls-5{mix-blend-mode:screen;}.cls-4{fill:url(#Gradiente_sem_nome_4);}.cls-5{fill:url(#Degradado_sin_nombre_80);}.cls-6{fill:url(#Gradiente_sem_nome_2);}.cls-7,.cls-8{mix-blend-mode:multiply;}.cls-7{fill:url(#Degradado_sin_nombre_106);}.cls-8{fill:url(#Degradado_sin_nombre_106-2);}.cls-9{fill:url(#Gradiente_sem_nome_18);}.cls-10{fill:url(#Gradiente_sem_nome_17);}.cls-11{fill:url(#Gradiente_sem_nome_16);}.cls-12{clip-path:url(#clip-path);}.cls-13{fill:url(#Gradiente_sem_nome_22);}.cls-14{fill:url(#Gradiente_sem_nome_19);}.cls-15{fill:url(#Gradiente_sem_nome_20);}.cls-16{clip-path:url(#clip-path-2);}.cls-17{fill:url(#Gradiente_sem_nome_22-2);}.cls-18{fill:url(#Gradiente_sem_nome_19-2);}.cls-19{fill:url(#Gradiente_sem_nome_20-2);}.cls-20{font-size:45.38px;font-family:Montserrat-Bold, Montserrat;font-weight:700;letter-spacing:0.19em;}.cls-20,.cls-25,.cls-30{fill:#fff;}.cls-21{letter-spacing:0.2em;}.cls-22{letter-spacing:0.19em;}.cls-23{letter-spacing:0.19em;}.cls-24{letter-spacing:0.2em;}.cls-25{font-size:19px;font-family:Montserrat-Regular, Montserrat;letter-spacing:0.3em;}.cls-26{letter-spacing:0.29em;}.cls-27{letter-spacing:0.27em;}.cls-28{letter-spacing:0.3em;}.cls-29{letter-spacing:0.3em;}.cls-30,.cls-31{fill-rule:evenodd;}.cls-31{fill:#bed0a8;}</style><linearGradient id="Gradiente_sem_nome_11" x1="244.79" y1="21.55" x2="104.01" y2="141.56" gradientTransform="translate(-10.53 3.9) rotate(-4)" gradientUnits="userSpaceOnUse"><stop offset="0" stop-color="#e6e4cf"/><stop offset="0.11" stop-color="#e6e4cf"/><stop offset="0.45" stop-color="#bed0a8"/><stop offset="0.81" stop-color="#446f67"/></linearGradient><linearGradient id="Gradiente_sem_nome_4" x1="239.33" y1="15.15" x2="98.94" y2="134.84" gradientTransform="translate(-10.53 3.9) rotate(-4)" gradientUnits="userSpaceOnUse"><stop offset="0.05" stop-color="#e6e4cf"/><stop offset="0.24" stop-color="#e6e4cf"/><stop offset="0.45" stop-color="#243a48"/><stop offset="0.81" stop-color="#243a48"/></linearGradient><linearGradient id="Degradado_sin_nombre_80" x1="238.8" y1="14.52" x2="98.65" y2="134" gradientTransform="translate(-10.53 3.9) rotate(-4)" gradientUnits="userSpaceOnUse"><stop offset="0" stop-color="#ad6caa"/><stop offset="0.03" stop-color="#ad6caa"/><stop offset="0.24" stop-color="#ad6caa"/><stop offset="0.45" stop-color="#965aa0"/><stop offset="0.81" stop-color="#52358c"/></linearGradient><linearGradient id="Gradiente_sem_nome_2" x1="252.25" y1="45.62" x2="154" y2="94.65" gradientTransform="translate(-10.53 3.9) rotate(-4)" gradientUnits="userSpaceOnUse"><stop offset="0.12" stop-color="#bed0a8"/><stop offset="0.39" stop-color="#6c9686"/><stop offset="0.73" stop-color="#446f67"/></linearGradient><linearGradient id="Degradado_sin_nombre_106" x1="158.3" y1="79.35" x2="221.18" y2="79.35" gradientTransform="translate(-10.53 3.9) rotate(-4)" gradientUnits="userSpaceOnUse"><stop offset="0.12" stop-color="#51c3f1"/><stop offset="0.39" stop-color="#2f7cc0"/><stop offset="0.73" stop-color="#52358c"/></linearGradient><linearGradient id="Degradado_sin_nombre_106-2" x1="158.3" y1="80.26" x2="201" y2="80.26" xlink:href="#Degradado_sin_nombre_106"/><linearGradient id="Gradiente_sem_nome_18" x1="81.32" y1="105.8" x2="128.33" y2="134.05" gradientTransform="translate(-10.53 3.9) rotate(-4)" gradientUnits="userSpaceOnUse"><stop offset="0.12" stop-color="#243a48"/><stop offset="0.39" stop-color="#243a48"/><stop offset="0.73" stop-color="#6c9686"/></linearGradient><linearGradient id="Gradiente_sem_nome_17" x1="88.77" y1="121.79" x2="115.17" y2="121.79" gradientTransform="translate(-10.53 3.9) rotate(-4)" gradientUnits="userSpaceOnUse"><stop offset="0.12" stop-color="#243a48"/><stop offset="0.39" stop-color="#bed0a8"/><stop offset="0.73" stop-color="#52358c"/></linearGradient><linearGradient id="Gradiente_sem_nome_16" x1="88.77" y1="122.69" x2="109.32" y2="122.69" gradientTransform="translate(-10.53 3.9) rotate(-4)" gradientUnits="userSpaceOnUse"><stop offset="0.12" stop-color="#243a48"/><stop offset="0.39" stop-color="#243a48"/><stop offset="0.73" stop-color="#e6e4cf"/></linearGradient><clipPath id="clip-path"><path class="cls-1" d="M228.94,27.94c0,.19.07.47.1.83v.06c0,.39.07.92.08,1.23a22.57,22.57,0,0,1-.23,3.73c-.08.48-.15.83-.2,1a23.42,23.42,0,0,1-1.14,3.76l-.42,1c-.06.14-.4.93-.42.92l0-.07s0,.13-.05.13,0-.06-.08-.08-.13,0-.16,0,0,0-.41.1a6.85,6.85,0,0,0-.71.2l-.84.27c-.63.21-1.08.32-1.29.38A42.25,42.25,0,0,0,219,43.06a50.13,50.13,0,0,0-10.52,6.48,23.12,23.12,0,0,0-2.77,2.52c-3.69,3.62-4.54,5.46-4.78,6s-.4,1-.68,1.85c-.16.45-.65,1.9-1.16,3.83a52.17,52.17,0,0,0-1.29,6.29,47,47,0,0,0-.41,8,41,41,0,0,0,.62,6.17,38.71,38.71,0,0,0,4.48,11.57c5.32,8.78,14.14,12.86,18.37,14.82,9.34,4.32,17.62,4.74,23.53,5a88.4,88.4,0,0,0,12.65-.39c.75,0,1.5-.19,2.26-.3h0s-.54.62-.79.85c-.58.56-1,.93-1.6,1.44a27.48,27.48,0,0,1-3.07,2.14,37.06,37.06,0,0,1-6.75,3.09,43.2,43.2,0,0,1-9.62,2,46.64,46.64,0,0,1-26.25-5.28,47.15,47.15,0,0,1-11.93-9,48.81,48.81,0,0,1-12.67-26.49,54.66,54.66,0,0,1,1.69-20.6c.51-1.67,1.15-3.35,1.15-3.35a52.8,52.8,0,0,1,3.16-6.9A50.36,50.36,0,0,1,199.91,43c.58-.62,1.42-1.52,2.64-2.63a44.7,44.7,0,0,1,9.76-6.73A44.69,44.69,0,0,1,227.14,29l1.54-.16.32,0"/></clipPath><linearGradient id="Gradiente_sem_nome_22" x1="237.18" y1="121.55" x2="170.11" y2="86.54" gradientTransform="translate(55.22 -48.71) rotate(15)" gradientUnits="userSpaceOnUse"><stop offset="0" stop-color="#bed0a8"/><stop offset="0.46" stop-color="#008f8c"/><stop offset="1" stop-color="#243a48"/></linearGradient><linearGradient id="Gradiente_sem_nome_19" x1="198.94" y1="110.72" x2="198.94" y2="35.21" gradientTransform="translate(55.22 -48.71) rotate(15)" gradientUnits="userSpaceOnUse"><stop offset="0" stop-color="#6c9686"/><stop offset="1" stop-color="#e6e4cf"/></linearGradient><linearGradient id="Gradiente_sem_nome_20" x1="227.56" y1="39.74" x2="170.41" y2="48.52" gradientTransform="translate(55.22 -48.71) rotate(15)" gradientUnits="userSpaceOnUse"><stop offset="0" stop-color="#6c9686"/><stop offset="1" stop-color="#446f67"/></linearGradient><clipPath id="clip-path-2"><path class="cls-1" d="M244.16,29.66c0,.33,0,.77,0,1.29,0,.68,0,1.56-.11,2.57,0,.28-.08.93-.17,1.63-.35,2.58-.88,3.06-.85,4.38a6.74,6.74,0,0,0,.86,2.8c1.56,2.81,5.62,3.05,8.7,4,7.68,2.39,8.31,9,18.63,14.35,1.18.62,3,1.51,4.93.89,2.63-.87,3.68-4.17,4.15-5.64,2.41-7.6-1.19-15.09-1.72-16.16-.66-1.32-6.82-13.21-19.61-14.19A23.65,23.65,0,0,0,244.16,29.66Z"/></clipPath><linearGradient id="Gradiente_sem_nome_22-2" x1="237.21" y1="121.21" x2="170.14" y2="86.2" xlink:href="#Gradiente_sem_nome_22"/><linearGradient id="Gradiente_sem_nome_19-2" x1="198.97" y1="110.38" x2="198.97" y2="34.86" xlink:href="#Gradiente_sem_nome_19"/><linearGradient id="Gradiente_sem_nome_20-2" x1="227.58" y1="39.39" x2="170.44" y2="48.17" xlink:href="#Gradiente_sem_nome_20"/></defs><title>22Ativo 1logo</title><g class="cls-2"><g id="Camada_2" data-name="Camada 2"><g id="Camada_1-2" data-name="Camada 1"><path class="cls-3" d="M236.07,9.24C228,.79,214.62-2.18,201.9,1.65c-11.43,3.44-20.24,11.21-26.64,17.59-15.64,15.59-27.76,34.1-39.47,52-9.65,14.73-19.62,30-31.31,43-.21.24-.4.44-.57.62l-.1.1c-3.61-3-6.87-10.83-12.73-8.79a7.3,7.3,0,0,0-4.23,4.43,12.45,12.45,0,0,0-.43,6.24c.88,5.56,4.57,9.54,9.46,12.08a14.71,14.71,0,0,0,16.65-1.53c3-2.3,5.16-5.28,7.42-8.22,1.84-2.42,3.89-4.74,5.81-7.14h0c.45-.55.88-1.1,1.31-1.66,4.78-6.31,9.28-12.82,13.68-19.39q3.84-5.76,7.61-11.54c1.54-2.35,3.06-4.68,4.59-7h0a58.84,58.84,0,0,0,37,8.32A67,67,0,0,0,228,63.12q2.36-2.17,4.36-4.44a45.89,45.89,0,0,0,10.76-19.63C245.83,28.08,243.12,16.66,236.07,9.24Zm-7.52,26.25c-1.37,5.63-5.08,11.37-10.72,16.6a51.88,51.88,0,0,1-29.5,13.76,43.71,43.71,0,0,1-27-5.84h0c7.5-10.79,15.33-21,24.51-30.11C191,24.74,198,18.52,206.24,16c6-1.81,14.12-1.42,18.87,3.49l.06.07C228.68,23.29,230,29.53,228.55,35.49Z"/><path class="cls-4" d="M243.59,24.34A28.67,28.67,0,0,0,238,15.71c-8-8.44-21.44-11.42-34.16-7.59-11.43,3.44-20.24,11.21-26.64,17.59-15.64,15.59-27.76,34.1-39.48,52-9.64,14.73-19.61,30-31.31,43l-.56.62a.94.94,0,0,1-.1.1c-3.61-3-6.88-10.83-12.73-8.79a7.3,7.3,0,0,0-4.23,4.43,11.5,11.5,0,0,0-.6,4.84,15,15,0,0,1-1.77-5.07,12.45,12.45,0,0,1,.43-6.24,7.3,7.3,0,0,1,4.23-4.43c5.86-2,9.12,5.75,12.74,8.8l.09-.11c.17-.18.36-.38.57-.62,11.69-13.09,21.66-28.31,31.31-43,11.72-17.89,23.84-36.4,39.47-52,6.4-6.38,15.21-14.15,26.64-17.59C214.62-2.18,228,.8,236.07,9.24A29.94,29.94,0,0,1,243.59,24.34Z"/><path class="cls-5" d="M243.17,22.44a28.8,28.8,0,0,0-5.89-9.4c-8-8.45-21.45-11.43-34.17-7.59C191.68,8.89,182.87,16.65,176.47,23,160.83,38.63,148.71,57.13,137,75c-9.64,14.73-19.61,30-31.31,43.05l-.56.62-.1.1c-3.61-3-6.87-10.84-12.73-8.79a7.26,7.26,0,0,0-4.23,4.42,12.37,12.37,0,0,0-.43,6.25,2.33,2.33,0,0,0,.05.28,14.5,14.5,0,0,1-1.26-4.08,12.45,12.45,0,0,1,.43-6.24,7.3,7.3,0,0,1,4.23-4.43c5.86-2,9.12,5.75,12.74,8.8l.09-.11c.17-.18.36-.38.57-.62,11.69-13.09,21.66-28.31,31.31-43,11.72-17.89,23.84-36.4,39.47-52,6.4-6.38,15.21-14.15,26.64-17.59C214.62-2.18,228,.8,236.07,9.24A29.43,29.43,0,0,1,243.17,22.44Z"/><path class="cls-6" d="M234.8,40c.32,6.3-.87,12.52-2.4,18.66q-2,2.26-4.36,4.44a70.1,70.1,0,0,1-12.08,9,66.39,66.39,0,0,1-19.69,7.69,60.25,60.25,0,0,1-6.37,1,58.84,58.84,0,0,1-37-8.32,115.18,115.18,0,0,1,7-10.55c.71-1,1.24-1.66,1.45-1.92a40.92,40.92,0,0,0,5.11,2.61,44.31,44.31,0,0,0,21.87,3.23,51.88,51.88,0,0,0,29.49-13.76c5.64-5.23,9.35-11,10.72-16.6,1.46-6,.13-12.2-3.38-15.89l-.06-.07C231.31,24.18,234.4,32.23,234.8,40Z"/><path class="cls-7" d="M216,72.1a65,65,0,0,1-26.06,8.7,58.84,58.84,0,0,1-37-8.32A116.65,116.65,0,0,1,161.36,60a40.92,40.92,0,0,0,5.11,2.61A22,22,0,0,0,174.16,71c6.68,4.43,15,6,23,5.48A66.44,66.44,0,0,0,216,72.1Z"/><path class="cls-8" d="M196.27,79.79a60.25,60.25,0,0,1-6.37,1,58.84,58.84,0,0,1-37-8.32,115.18,115.18,0,0,1,7-10.55,30.4,30.4,0,0,0,3.89,5.22,37.18,37.18,0,0,0,6.31,5.51,42.86,42.86,0,0,0,24.23,7.17C195,79.83,195.63,79.82,196.27,79.79Z"/><path class="cls-9" d="M125.76,112.07c-1.92,2.39-4,4.71-5.81,7.13a48.5,48.5,0,0,1-6.45,7.41c-.31.29-.64.55-1,.81a16.48,16.48,0,0,1-4.65,2.6,14.7,14.7,0,0,1-12-1.07c-4.89-2.54-8.58-6.51-9.46-12.08a12.45,12.45,0,0,1,.43-6.24A8.12,8.12,0,0,1,88.4,108a6.58,6.58,0,0,1,2.68-1.84,5.81,5.81,0,0,1,.84-.22c5.34-1.08,8.46,6.12,11.9,9l.09-.11a9.93,9.93,0,0,0,.81,1.79,7.94,7.94,0,0,0,3.42,3.27,8.4,8.4,0,0,0,5.53.39,16.66,16.66,0,0,0,5.1-2.4A45.5,45.5,0,0,0,125.76,112.07Z"/><path class="cls-10" d="M113.5,126.61c-.31.29-.64.55-1,.81A14.71,14.71,0,0,1,95.88,129c-4.89-2.54-8.58-6.51-9.46-12.08a12.45,12.45,0,0,1,.43-6.24,7.3,7.3,0,0,1,4.23-4.43,5.81,5.81,0,0,1,.84-.22c-.44,4.38,1.2,8.85,3.62,12.59a19.5,19.5,0,0,0,8.36,7.59A14.15,14.15,0,0,0,113.5,126.61Z"/><path class="cls-11" d="M107.88,130a14.7,14.7,0,0,1-12-1.07c-4.89-2.54-8.58-6.51-9.46-12.08a12.45,12.45,0,0,1,.43-6.24A8.12,8.12,0,0,1,88.4,108a21.56,21.56,0,0,0,2.12,7.79,32.12,32.12,0,0,0,3.86,5.82,29.3,29.3,0,0,0,4,4.19A19.26,19.26,0,0,0,107.88,130Z"/><g class="cls-12"><path class="cls-13" d="M259.35,115s-20.79,3.59-39.24-4.7c-35.54-16-18.79-53.06-18.79-53.06s-13,14.36-9.78,34.84S234.77,134,259.35,115Z"/><path class="cls-14" d="M275.31,58.67C270,51.4,262.21,46.33,254.66,43A42.47,42.47,0,0,0,243,39.72a44.61,44.61,0,0,0-6-.48l-3,.11-.74,0-.74.1-1.47.2-1.46.17c-.49.08-1,.21-1.44.31-1,.24-1.94.37-2.87.68s-1.88.58-2.82.86-1.82.73-2.73,1.08A26.8,26.8,0,0,0,217.07,44a22.17,22.17,0,0,0-2.59,1.39c-.83.54-1.71,1-2.53,1.54l-2.38,1.75a42.46,42.46,0,0,0-8.25,8.57,42.73,42.73,0,0,0-5.26,10.85,45.46,45.46,0,0,0-1.72,12.06,44,44,0,0,0,2,12.12,41.39,41.39,0,0,0,14.19,20.18l1.26,1,.63.48.68.42,2.7,1.68a44.83,44.83,0,0,0,5.82,2.63,40.13,40.13,0,0,0,12.57,2.69A44.15,44.15,0,0,0,259.35,115c-2.62,3-7.15,5.78-11.52,7.29a45.16,45.16,0,0,1-13.67,2.41,44.42,44.42,0,0,1-13.91-1.85,49.34,49.34,0,0,1-6.67-2.43l-3.17-1.63-.79-.42-.75-.48-1.51-1a47.9,47.9,0,0,1-17.87-22.18,51.67,51.67,0,0,1-3.18-14.26,54,54,0,0,1,1.27-14.66,56.86,56.86,0,0,1,5.53-13.78,52.84,52.84,0,0,1,9.44-11.66A45.38,45.38,0,0,1,230,28.76l1.9-.09.94-.05.95,0,3.77.18c1.25.16,2.49.38,3.72.57a23.92,23.92,0,0,1,3.66.82,39.18,39.18,0,0,1,7,2.45c1.14.49,2.23,1.07,3.32,1.64s2.13,1.24,3.14,1.94A41.11,41.11,0,0,1,275.31,58.67Z"/><path class="cls-15" d="M258.42,36.26c-1-.7-2.08-1.31-3.14-1.94s-2.18-1.15-3.32-1.64a39.18,39.18,0,0,0-7-2.45,23.92,23.92,0,0,0-3.66-.82c-1.23-.19-2.47-.41-3.72-.57l-3.77-.18-.95,0-.94.05-1.9.09A45.38,45.38,0,0,0,202.55,40.4a52.84,52.84,0,0,0-9.44,11.66,53.52,53.52,0,0,0-2.51,5.1c1.45-2.38,19.47-30.62,51.75-23.68,23.16,5,33,25.19,33,25.19A41.11,41.11,0,0,0,258.42,36.26Z"/></g><g class="cls-16"><path class="cls-17" d="M259.47,114.69s-20.79,3.59-39.24-4.69c-35.54-16-18.8-53.07-18.8-53.07s-13,14.36-9.78,34.85S234.88,133.67,259.47,114.69Z"/><path class="cls-18" d="M275.43,58.34c-5.33-7.27-13.1-12.33-20.65-15.67a42.88,42.88,0,0,0-11.72-3.28,46,46,0,0,0-6-.48l-3,.12-.74,0-.73.1-1.47.21-1.47.17c-.48.08-1,.21-1.44.31-1,.23-1.93.36-2.86.67s-1.88.58-2.82.86-1.82.73-2.73,1.09a24.81,24.81,0,0,0-2.67,1.22,21,21,0,0,0-2.6,1.4c-.82.53-1.7,1-2.52,1.54l-2.39,1.74a42.73,42.73,0,0,0-8.25,8.57,43.14,43.14,0,0,0-5.26,10.86,45.74,45.74,0,0,0-1.71,12.06,43.94,43.94,0,0,0,2,12.11,41.46,41.46,0,0,0,14.19,20.19l1.26,1,.63.49.67.41,2.71,1.68a44.75,44.75,0,0,0,5.81,2.64A40.52,40.52,0,0,0,234.33,121a44.17,44.17,0,0,0,25.14-6.32c-2.62,3-7.16,5.79-11.53,7.29a45.1,45.1,0,0,1-13.67,2.41,44.07,44.07,0,0,1-13.9-1.85,50.68,50.68,0,0,1-6.67-2.42l-3.17-1.64-.8-.41-.75-.49-1.5-1a47.85,47.85,0,0,1-17.87-22.18,51.6,51.6,0,0,1-3.18-14.25,54.07,54.07,0,0,1,1.26-14.67,57.27,57.27,0,0,1,5.53-13.78,53.4,53.4,0,0,1,9.45-11.66,45.37,45.37,0,0,1,27.45-11.63l1.89-.1,1-.05.94,0,3.78.19c1.24.15,2.48.37,3.72.56a25.33,25.33,0,0,1,3.65.82,40.91,40.91,0,0,1,7,2.45c1.13.49,2.23,1.07,3.32,1.64s2.13,1.24,3.14,1.94A41.11,41.11,0,0,1,275.43,58.34Z"/><path class="cls-19" d="M258.54,35.93c-1-.7-2.08-1.31-3.14-1.94s-2.19-1.15-3.32-1.64a40.91,40.91,0,0,0-7-2.45,25.33,25.33,0,0,0-3.65-.82c-1.24-.19-2.48-.41-3.72-.56l-3.78-.19-.94,0-1,.05-1.89.1a45.37,45.37,0,0,0-27.45,11.63,53.4,53.4,0,0,0-9.45,11.66c-.93,1.66-1.75,3.37-2.51,5.11,1.46-2.39,19.48-30.62,51.75-23.69,23.17,5,33,25.19,33,25.19A41.11,41.11,0,0,0,258.54,35.93Z"/></g><text class="cls-20" transform="translate(24.93 190.29)">P<tspan class="cls-21" x="41.84" y="0">ROD</tspan><tspan class="cls-22" x="178.22" y="0">U</tspan><tspan class="cls-23" x="222.51" y="0">T</tspan><tspan class="cls-24" x="259.19" y="0">O</tspan></text><text class="cls-25" transform="translate(86 222.08)">HOS<tspan class="cls-26" x="60.17" y="0">P</tspan><tspan x="79.32" y="0">I</tspan><tspan class="cls-27" x="90.76" y="0">T</tspan><tspan x="106.7" y="0">A</tspan><tspan class="cls-28" x="126.03" y="0">L</tspan><tspan class="cls-29" x="142.95" y="0">ARES</tspan></text><path class="cls-30" d="M331.9,151.57c0-1.64-2.13-3-4.69-3s-4.68,1.35-4.68,3,2.2,2.91,4.68,2.91,4.69-1.35,4.69-2.91Zm36.86,38.21a3.65,3.65,0,0,0-2.55-1.07,3.69,3.69,0,1,0,0,7.38,3.71,3.71,0,0,0,2.55-6.31Zm-15.55-20a8.78,8.78,0,0,0,0-17.55H337.37v.29a.79.79,0,0,1-.78.78H333a6.76,6.76,0,0,1-5.83,2.77c-3.48,0-6.24-2-6.24-4.54s2.76-4.62,6.24-4.62a6.61,6.61,0,0,1,5.68,2.63h3.7a.78.78,0,0,1,.78.78v.35h15.84a10.37,10.37,0,1,1,0,20.74h-7.46a8.74,8.74,0,0,0-8.73,8.81,8.91,8.91,0,0,0,8.87,8.8l6-.5-1.71-2.41a4,4,0,0,1,1-5.68l16.83-11.86a4.38,4.38,0,0,1,3.06-.71,4.07,4.07,0,0,1,2.62,1.7l6.18,8.67a4,4,0,0,1,.64,3,3.75,3.75,0,0,1-1.63,2.63l-8.24,5.83a5.49,5.49,0,0,1,.71,2.62,5.16,5.16,0,0,1-1.56,3.62,4.87,4.87,0,0,1-3.62,1.57,5.17,5.17,0,0,1-3.7-1.57l-.28-.28-.21.07a3.72,3.72,0,0,1-3.06.71,3.92,3.92,0,0,1-2.63-1.63l-3.41-4.83-7.17.49a10.33,10.33,0,1,1,0-20.66c2.49,0,4.9-.07,7.46-.07Z"/><path class="cls-31" d="M365.82,192.85l3.1,1.38-2.5-2.32a1,1,0,0,0-.51-1.12,1.18,1.18,0,0,0-1.72.34,1.32,1.32,0,0,0,.34,1.72,1.16,1.16,0,0,0,1.29,0Z"/></g></g></g></svg>